<svg height="516pt" viewBox="-16 -46 516.0004 516" width="516pt" xmlns="http://www.w3.org/2000/svg"><path d="m442.535156 160.335938h-225.191406c-19.121094-.058594-35.753906 13.085937-40.109375 31.710937l-.097656.363281-54.40625 192.097656c-3.410157 14.355469-11.214844 27.292969-22.324219 37.011719h299.421875c19.667969-.039062 36.582031-13.9375 40.433594-33.226562l.070312-.335938 42.671875-178.582031c2.332032-12.082031-.851562-24.570312-8.679687-34.058594-7.832031-9.488281-19.484375-14.980468-31.789063-14.980468zm0 0"/><path d="m285.929688 63.757812c23.515624.035157 43.660156 16.835938 47.910156 39.964844h2.886718c23.050782.035156 42.816407 16.464844 47.054688 39.125h8.308594v-52.007812c-.03125-24.449219-19.84375-44.253906-44.289063-44.285156h-86.660156c-14.160156 0-27.851563-5.121094-38.535156-14.421876l-27.617188-24.035156c-7.503906-6.527344-17.113281-10.125-27.0625-10.125h-123.644531c-24.445312.03125-44.2539062 19.835938-44.28125 44.285156v325.660157c.0078125 18.871093 9.941406 36.34375 26.144531 46.011719v-291.472657c.039063-32.402343 26.296875-58.664062 58.699219-58.699219zm0 0"/><path d="m105.859375 379.914062 54.40625-192.097656c6.28125-26.421875 29.917969-45.050781 57.078125-44.96875h148.480469c-3.875-12.832031-15.695313-21.625-29.101563-21.640625h-201.910156c-22.75.023438-41.191406 18.460938-41.214844 41.214844v241.246094c5.941406-6.65625 10.121094-14.699219 12.164063-23.386719zm0 0"/><path d="m315.898438 103.722656c-3.902344-13.3125-16.101563-22.464844-29.972657-22.480468h-201.078125c-22.753906.023437-41.1875 18.460937-41.214844 41.214843v298.117188c10.972657 2.089843 22.324219.699219 32.472657-3.972657v-254.179687c.035156-32.402344 26.296875-58.664063 58.699219-58.699219zm0 0"/></svg>