<svg height="512" viewBox="0 0 512 512" width="512" xmlns="http://www.w3.org/2000/svg"><g id="Solid"><path d="m464.971 103.029-72-72a24 24 0 0 0 -33.942 0l-72 72a24 24 0 0 0 33.942 33.942l31.029-31.03v86.439a71.091 71.091 0 0 1 -44.912 66.329 118.925 118.925 0 0 0 -51.088 39.113 118.922 118.922 0 0 0 -51.089-39.113 71.091 71.091 0 0 1 -44.911-66.329v-86.439l31.029 31.03a24 24 0 0 0 33.942-33.942l-72-72a24 24 0 0 0 -33.942 0l-72 72a24 24 0 0 0 33.942 33.942l31.029-31.03v86.439a119.434 119.434 0 0 0 75.088 110.9 71.094 71.094 0 0 1 44.912 66.326v94.394a24 24 0 0 0 48 0v-94.394a71.1 71.1 0 0 1 44.911-66.329 119.433 119.433 0 0 0 75.089-110.897v-86.439l31.029 31.03a24 24 0 0 0 33.942-33.942z"/></g></svg>