<?xml version="1.0" encoding="iso-8859-1"?>
<!-- Generator: Adobe Illustrator 19.0.0, SVG Export Plug-In . SVG Version: 6.00 Build 0)  -->
<svg version="1.1" id="Capa_1" xmlns="http://www.w3.org/2000/svg" xmlns:xlink="http://www.w3.org/1999/xlink" x="0px" y="0px"
	 viewBox="0 0 459.755 459.755" style="enable-background:new 0 0 459.755 459.755;" xml:space="preserve">
<g>
	<g>
		<g>
			<path d="M452.963,227.004L380.865,82.808c-0.972-3.061-3.612-5.295-6.792-5.747c-2.612,0-5.224,3.135-6.792,3.135h-91.429
				c-3.737-22.677-23.004-39.535-45.976-40.229c-22.972,0.693-42.239,17.552-45.976,40.229H92.473c-1.567,0-4.18-3.135-6.792-3.135
				c-3.1,0.24-5.765,2.29-6.792,5.224L6.792,226.482c-3.807,0.723-6.618,3.966-6.792,7.837c0,42.841,38.139,77.322,85.682,77.322
				s86.204-34.482,86.204-76.8c0.068-4.353-3.029-8.114-7.314-8.882L100.31,95.869h84.637c2.707,18.417,16.37,33.321,34.482,37.616
				v187.037h15.673V133.486c20.222-2.111,36.506-17.538,39.706-37.616h84.637l-64.261,130.09c-4.204,0.53-7.347,4.122-7.314,8.359
				c0,42.318,38.661,77.322,86.204,77.322s85.682-34.482,85.682-77.322C459.537,230.567,456.688,227.499,452.963,227.004z
				 M147.331,226.482H24.555l61.127-123.298L147.331,226.482z M312.424,226.482l61.649-123.298L435.2,226.482H312.424z"/>
			<rect x="141.061" y="393.665" width="177.633" height="26.122"/>
			<path d="M229.878,336.196c-29.78,0-54.335,15.673-56.947,41.796h113.894C284.212,351.869,259.657,336.196,229.878,336.196z"/>
		</g>
	</g>
</g>
<g>
</g>
<g>
</g>
<g>
</g>
<g>
</g>
<g>
</g>
<g>
</g>
<g>
</g>
<g>
</g>
<g>
</g>
<g>
</g>
<g>
</g>
<g>
</g>
<g>
</g>
<g>
</g>
<g>
</g>
</svg>
