<svg height="512pt" viewBox="0 -75 512 512" width="512pt" xmlns="http://www.w3.org/2000/svg"><path d="m501.332031 362.667969h-170.664062c-99.992188 0-181.335938-81.34375-181.335938-181.335938 0-99.988281 81.34375-181.332031 181.335938-181.332031h170.664062c5.890625 0 10.667969 4.777344 10.667969 10.667969 0 5.886719-4.777344 10.664062-10.667969 10.664062h-170.664062c-88.234375 0-160 71.765625-160 160s71.765625 160 160 160h170.664062c5.890625 0 10.667969 4.78125 10.667969 10.667969s-4.777344 10.667969-10.667969 10.667969zm0 0"/><path d="m501.332031 192h-490.664062c-5.890625 0-10.667969-4.777344-10.667969-10.667969 0-5.886719 4.777344-10.664062 10.667969-10.664062h490.664062c5.890625 0 10.667969 4.777343 10.667969 10.664062 0 5.890625-4.777344 10.667969-10.667969 10.667969zm0 0"/></svg>